<?xml version="1.0" standalone="no"?>
<!DOCTYPE svg PUBLIC "-//W3C//DTD SVG 20010904//EN"
 "http://www.w3.org/TR/2001/REC-SVG-20010904/DTD/svg10.dtd">
<svg version="1.0" xmlns="http://www.w3.org/2000/svg"
 width="512.000000pt" height="512.000000pt" viewBox="0 0 512.000000 512.000000"
 preserveAspectRatio="xMidYMid meet">
<metadata>
Created by potrace 1.11, written by Peter Selinger 2001-2013
</metadata>
<g transform="translate(0.000000,512.000000) scale(0.100000,-0.100000)"
fill="#000000" stroke="none">
<path d="M2378 5115 c-2 -1 -39 -5 -82 -9 -44 -4 -82 -9 -85 -11 -4 -2 -34 -7
-66 -10 -117 -14 -472 -111 -499 -136 -6 -5 -16 -9 -23 -9 -8 0 -49 -16 -91
-35 -352 -161 -618 -354 -877 -637 -33 -36 -71 -80 -85 -98 -14 -18 -29 -38
-35 -44 -82 -92 -246 -369 -323 -546 -61 -142 -131 -351 -146 -443 -3 -15 -7
-35 -10 -45 -3 -9 -7 -34 -11 -56 -3 -21 -7 -41 -9 -45 -4 -6 -12 -73 -26
-201 -8 -81 -5 -459 4 -500 4 -14 8 -47 11 -75 22 -218 122 -547 237 -780 45
-90 58 -114 117 -214 38 -64 160 -236 193 -271 13 -14 34 -38 46 -55 37 -48
172 -184 253 -256 255 -226 566 -403 891 -510 101 -33 261 -74 323 -83 22 -4
47 -8 55 -11 8 -2 35 -6 60 -9 25 -3 72 -9 105 -12 81 -10 412 -11 505 -2 92
9 117 13 250 39 58 12 115 23 128 25 38 7 320 103 370 125 579 260 1015 669
1285 1204 190 378 271 720 272 1150 0 217 -14 373 -46 513 -6 26 -13 58 -15
72 -13 72 -92 310 -139 421 -131 307 -341 612 -575 835 -117 111 -134 126
-230 199 -180 136 -349 234 -560 325 -183 79 -443 150 -640 176 -25 3 -56 8
-70 10 -27 6 -456 14 -462 9z"/>
</g>
</svg>
